<svg width="20" height="24" viewBox="0 0 20 24" fill="none" xmlns="http://www.w3.org/2000/svg">
<g clip-path="url(#clip0_1075_2180)">
<path d="M16.1247 12.9637C16.2299 11.1615 17.3065 9.6468 18.8163 8.89942C18.108 7.91855 17.0092 7.01243 15.7584 6.69236C14.0528 6.25553 13.036 6.75779 12.3862 6.945C11.7365 7.13221 10.8791 7.28455 10.8791 7.28455C10.8791 7.28455 10.0461 7.03356 9.4217 6.77199C8.79895 6.51052 7.84754 5.89258 6.10266 6.12803C4.35779 6.36349 2.76722 7.7149 2.08 8.96218C0.754542 11.3694 1.05873 14.5129 1.76226 16.802C2.46493 19.0919 4.48614 22.3519 6.1805 22.7035C7.38583 22.9535 8.18732 22.1574 10.0174 22.0505C11.8225 22.3696 12.526 23.2535 13.7522 23.1454C15.476 22.9932 17.8627 19.9905 18.8269 17.7979C18.8504 17.744 18.8748 17.6885 18.8983 17.633C17.1605 16.8148 16.0059 14.9992 16.1247 12.9637ZM10.5223 5.97553C10.5223 5.97553 12.1996 6.29855 13.8363 4.64505C15.4729 2.99155 15.1326 1.31695 15.1326 1.31695C15.1326 1.31695 13.4552 0.99393 11.8186 2.64743C10.182 4.30093 10.5223 5.97553 10.5223 5.97553Z" fill="#9A9A9A"/>
</g>
<defs>
<clipPath id="clip0_1075_2180">
<rect width="18" height="21.9067" fill="white" transform="translate(1.86664 0.532928) rotate(3.34)"/>
</clipPath>
</defs>
</svg>
