<svg width="18" height="18" viewBox="0 0 18 18" fill="none" xmlns="http://www.w3.org/2000/svg">
<path d="M16.5 8.625V11.625C16.5 14.25 15 15.375 12.75 15.375H5.25C3 15.375 1.5 14.25 1.5 11.625V6.375C1.5 3.75 3 2.625 5.25 2.625H9" stroke="#919191" stroke-width="1.5" stroke-miterlimit="10" stroke-linecap="round" stroke-linejoin="round"/>
<path d="M5.25 6.75L7.5975 8.625C8.37 9.24 9.6375 9.24 10.41 8.625" stroke="#919191" stroke-width="1.5" stroke-miterlimit="10" stroke-linecap="round" stroke-linejoin="round"/>
<path d="M14.6099 2.11496L14.8199 2.54245C14.9249 2.75245 15.1874 2.94745 15.4199 2.99245L15.7049 3.03745C16.5599 3.17995 16.7624 3.80995 16.1474 4.43245L15.8849 4.69495C15.7124 4.87495 15.6149 5.21995 15.6674 5.45995L15.7049 5.61745C15.9374 6.65245 15.3899 7.04995 14.4899 6.50995L14.2949 6.39745C14.0624 6.26245 13.6874 6.26245 13.4549 6.39745L13.2599 6.50995C12.3524 7.05745 11.8049 6.65245 12.0449 5.61745L12.0824 5.45995C12.1349 5.21995 12.0374 4.87495 11.8649 4.69495L11.6024 4.43245C10.9874 3.80995 11.1899 3.17995 12.0449 3.03745L12.3299 2.99245C12.5549 2.95495 12.8249 2.75245 12.9299 2.54245L13.1399 2.11496C13.5449 1.29746 14.2049 1.29746 14.6099 2.11496Z" stroke="#919191" stroke-width="1.5" stroke-linecap="round" stroke-linejoin="round"/>
</svg>
