<svg width="20" height="21" viewBox="0 0 20 21" fill="none" xmlns="http://www.w3.org/2000/svg">
<g clip-path="url(#clip0_1075_2182)">
<path d="M4.78764 0.974531L15.1475 7.76364L12.7158 9.92719L4.78764 0.974531ZM2.59586 0.346679L11.8637 10.7224L1.45264 19.9497C0.964866 19.6992 0.650558 19.1866 0.683973 18.614C0.685069 18.5953 0.686166 18.5765 0.688031 18.5586L0.687888 18.561L1.67552 1.63789C1.67561 1.62232 1.67671 1.60354 1.6778 1.58475C1.71122 1.01218 2.08302 0.539673 2.58745 0.350286L2.59663 0.347543L2.59586 0.346679ZM18.363 9.94942C18.6865 10.2199 18.8797 10.6311 18.8535 11.0796C18.8525 11.0975 18.8515 11.1147 18.8496 11.1326L18.8498 11.1301C18.851 11.1655 18.851 11.2073 18.8486 11.2489C18.824 11.6704 18.5979 12.0326 18.2691 12.2461L18.2657 12.2484L15.8921 13.4154L13.5471 10.8207L16.1812 8.47716L18.363 9.94942ZM3.70176 19.5811L12.6183 11.6115L14.7819 14.0432L3.70176 19.5811Z" fill="#9A9A9A"/>
</g>
<defs>
<clipPath id="clip0_1075_2182">
<rect width="18" height="19.6364" fill="white" transform="translate(1.75293 0.297485) rotate(3.34)"/>
</clipPath>
</defs>
</svg>
