<svg width="39" height="33" viewBox="0 0 39 33" fill="none" xmlns="http://www.w3.org/2000/svg">
<g filter="url(#filter0_dd_1039_2439)">
<g clip-path="url(#clip0_1039_2439)">
<rect x="7" y="0.25" width="32" height="32" rx="16" fill="#151515"/>
<path fill-rule="evenodd" clip-rule="evenodd" d="M0.600159 21.5837H45.4002V23.717H0.600159V21.5837Z" fill="white"/>
<path fill-rule="evenodd" clip-rule="evenodd" d="M0.600159 23.7172H45.4002V32.2505H0.600159V23.7172Z" fill="#0A6A30"/>
<path fill-rule="evenodd" clip-rule="evenodd" d="M0.600159 10.917H45.4002V21.5837H0.600159V10.917Z" fill="#F93939"/>
<path fill-rule="evenodd" clip-rule="evenodd" d="M0.600159 8.78351H45.4002V10.9168H0.600159V8.78351Z" fill="white"/>
<path fill-rule="evenodd" clip-rule="evenodd" d="M27.0836 12.8672C27.2372 12.8672 28.1503 11.4378 28.1503 9.66716C28.1503 7.90076 27.2372 6.46716 27.0836 6.46716C26.9343 6.46716 26.017 7.90076 26.017 9.66716C26.017 11.4378 26.9343 12.8672 27.0836 12.8672ZM20.8138 11.9306C20.7071 12.0373 19.0431 11.6746 17.7972 10.4224C16.5492 9.17223 16.1823 7.5125 16.2911 7.40583C16.3978 7.29916 18.0575 7.66183 19.3076 8.9141C20.5578 10.1642 20.9226 11.824 20.8159 11.9328L20.8138 11.9306ZM24.8223 21.601C24.929 21.5008 26.593 21.8421 27.841 23.009C29.089 24.1824 29.4559 25.7333 29.3492 25.8336C29.2426 25.9338 27.5786 25.5925 26.3284 24.4256C25.0804 23.2522 24.7135 21.7013 24.8223 21.601ZM20.8138 21.601C20.7071 21.5008 19.0431 21.8421 17.7972 23.009C16.5492 24.1824 16.1823 25.7333 16.2911 25.8336C16.3978 25.9338 18.0575 25.5925 19.3076 24.4256C20.5578 23.2522 20.9226 21.7013 20.8159 21.601H20.8138Z" fill="white"/>
<path fill-rule="evenodd" clip-rule="evenodd" d="M23 25.8504C23.7616 25.8504 28.3334 21.5517 28.3334 16.2504C28.3334 10.9491 23.7616 6.65039 23 6.65039C22.2384 6.65039 17.6667 10.9491 17.6667 16.2504C17.6667 21.5517 22.2384 25.8504 23 25.8504Z" fill="#F93939"/>
<path fill-rule="evenodd" clip-rule="evenodd" d="M18.7334 19.4505C18.8827 19.4505 19.8 18.0169 19.8 16.2505C19.8 14.4841 18.8827 13.0505 18.7334 13.0505C18.584 13.0505 17.6667 14.4841 17.6667 16.2505C17.6667 18.0169 18.584 19.4505 18.7334 19.4505ZM27.2667 19.4505C27.416 19.4505 28.3334 18.0169 28.3334 16.2505C28.3334 14.4841 27.416 13.0505 27.2667 13.0505C27.1174 13.0505 26.2 14.4841 26.2 16.2505C26.2 18.0169 27.1174 19.4505 27.2667 19.4505Z" fill="#151515"/>
<path d="M24.0666 16.2505C24.0666 14.4832 23.5891 13.0505 23 13.0505C22.4109 13.0505 21.9333 14.4832 21.9333 16.2505C21.9333 18.0178 22.4109 19.4505 23 19.4505C23.5891 19.4505 24.0666 18.0178 24.0666 16.2505Z" fill="white"/>
</g>
</g>
<defs>
<filter id="filter0_dd_1039_2439" x="0.142858" y="-2.03571" width="45.7143" height="45.7143" filterUnits="userSpaceOnUse" color-interpolation-filters="sRGB">
<feFlood flood-opacity="0" result="BackgroundImageFix"/>
<feColorMatrix in="SourceAlpha" type="matrix" values="0 0 0 0 0 0 0 0 0 0 0 0 0 0 0 0 0 0 127 0" result="hardAlpha"/>
<feOffset dy="4.57143"/>
<feGaussianBlur stdDeviation="3.42857"/>
<feComposite in2="hardAlpha" operator="out"/>
<feColorMatrix type="matrix" values="0 0 0 0 0.258824 0 0 0 0 0.278431 0 0 0 0 0.298039 0 0 0 0.08 0"/>
<feBlend mode="normal" in2="BackgroundImageFix" result="effect1_dropShadow_1039_2439"/>
<feColorMatrix in="SourceAlpha" type="matrix" values="0 0 0 0 0 0 0 0 0 0 0 0 0 0 0 0 0 0 127 0" result="hardAlpha"/>
<feOffset/>
<feGaussianBlur stdDeviation="0.285714"/>
<feComposite in2="hardAlpha" operator="out"/>
<feColorMatrix type="matrix" values="0 0 0 0 0.258824 0 0 0 0 0.278431 0 0 0 0 0.298039 0 0 0 0.32 0"/>
<feBlend mode="normal" in2="effect1_dropShadow_1039_2439" result="effect2_dropShadow_1039_2439"/>
<feBlend mode="normal" in="SourceGraphic" in2="effect2_dropShadow_1039_2439" result="shape"/>
</filter>
<clipPath id="clip0_1039_2439">
<rect x="7" y="0.25" width="32" height="32" rx="16" fill="white"/>
</clipPath>
</defs>
</svg>
