<svg width="181" height="43" viewBox="0 0 181 43" fill="none" xmlns="http://www.w3.org/2000/svg">
<path d="M18.6527 3.69782C19.9096 1.90132 22.5699 1.90132 23.8267 3.69782L25.0564 5.45555C25.8178 6.54389 27.179 7.03931 28.4618 6.69501L30.5337 6.13896C32.6512 5.57063 34.6892 7.28066 34.4972 9.46474L34.3094 11.6017C34.1931 12.9248 34.9173 14.1793 36.1213 14.7401L38.0659 15.6459C40.0534 16.5717 40.5153 19.1916 38.9644 20.7413L37.4469 22.2576C36.5073 23.1964 36.2558 24.6229 36.8176 25.8265L37.725 27.7703C38.6524 29.757 37.3222 32.0609 35.138 32.2511L33.0009 32.4372C31.6776 32.5524 30.568 33.4835 30.2248 34.7666L29.6704 36.8389C29.1038 38.9569 26.6039 39.8668 24.8084 38.6085L23.0517 37.3774C21.964 36.6151 20.5155 36.6151 19.4278 37.3774L17.671 38.6085C15.8756 39.8668 13.3757 38.9569 12.8091 36.8389L12.2547 34.7666C11.9114 33.4835 10.8018 32.5524 9.47858 32.4372L7.34149 32.2511C5.15726 32.0609 3.82709 29.757 4.75449 27.7703L5.66187 25.8265C6.2237 24.6229 5.97217 23.1964 5.03258 22.2576L3.5151 20.7413C1.96413 19.1916 2.4261 16.5717 4.41355 15.6459L6.35811 14.7401C7.56213 14.1793 8.28639 12.9248 8.17008 11.6017L7.98225 9.46474C7.79027 7.28066 9.82821 5.57063 11.9458 6.13896L14.0176 6.69501C15.3005 7.03931 16.6616 6.54389 17.423 5.45555L18.6527 3.69782Z" fill="#1F1F1F"/>
<g clip-path="url(#clip0_1078_2312)">
<path d="M22.9284 7.36813C25.3341 7.36813 29.9592 7.90897 29.9592 14.026C29.9592 20.1617 25.3341 20.6839 22.9284 20.6839H20.0377C17.6319 20.6839 13.0068 20.1617 13.0068 14.026C13.0068 7.90897 17.6319 7.36813 20.0377 7.36813L22.9284 7.36813ZM23.8981 17.3456C25.7817 17.3456 26.248 15.7231 26.248 14.026C26.248 12.3475 25.7817 10.725 23.8981 10.725H19.0679C17.1843 10.725 16.7181 12.3475 16.7181 14.026C16.7181 15.7231 17.1843 17.3456 19.0679 17.3456H23.8981Z" fill="#40FF00"/>
<path d="M22.9679 21.8465C25.3737 21.8465 29.9988 22.3873 29.9988 28.5043C29.9988 34.64 25.3737 35.1622 22.9679 35.1622H20.0772C17.6715 35.1622 13.0464 34.64 13.0464 28.5043C13.0464 22.3873 17.6715 21.8465 20.0772 21.8465H22.9679ZM23.9377 31.824C25.8213 31.824 26.2875 30.2015 26.2875 28.5043C26.2875 26.8259 25.8213 25.2034 23.9377 25.2034H19.1075C17.2239 25.2034 16.7576 26.8259 16.7576 28.5043C16.7576 30.2015 17.2239 31.824 19.1075 31.824H23.9377Z" fill="#40FF00"/>
</g>
<path d="M49.7451 32.7397V30.3804L58.3701 19.2554V19.1772H49.8232V16.1772H62.8076V18.7397L54.5264 29.6616V29.7397H62.9482V32.7397H49.7451ZM72.667 33.0679C67.6982 33.0679 64.6982 29.771 64.6982 24.5054V24.4897C64.6982 19.271 67.7451 15.8335 72.4795 15.8335C77.2139 15.8335 80.1514 19.1616 80.1514 24.1616V25.4116H68.5576C68.6201 28.3179 70.2139 30.0366 72.7451 30.0366C74.6826 30.0366 75.9482 29.0054 76.3232 27.896L76.3545 27.7866H79.9951L79.9482 27.9585C79.4326 30.5054 76.9951 33.0679 72.667 33.0679ZM72.5264 18.8804C70.4639 18.8804 68.917 20.271 68.6045 22.8179H76.3701C76.0889 20.1929 74.5889 18.8804 72.5264 18.8804ZM82.667 32.7397V16.1772H86.5576V19.0366H86.6357C87.1514 17.0366 88.5264 15.8335 90.4326 15.8335C90.917 15.8335 91.3701 15.9116 91.667 15.9897V19.5054C91.3389 19.3804 90.7451 19.2866 90.0889 19.2866C87.8857 19.2866 86.5576 20.6772 86.5576 23.1304V32.7397H82.667ZM100.37 33.0679C95.4951 33.0679 92.3545 29.8179 92.3545 24.4585V24.4272C92.3545 19.1147 95.542 15.8335 100.354 15.8335C105.183 15.8335 108.386 19.0835 108.386 24.4272V24.4585C108.386 29.8335 105.229 33.0679 100.37 33.0679ZM100.386 29.9272C102.839 29.9272 104.417 27.9272 104.417 24.4585V24.4272C104.417 20.9741 102.823 18.9897 100.354 18.9897C97.9326 18.9897 96.3232 20.9897 96.3232 24.4272V24.4585C96.3232 27.9429 97.9014 29.9272 100.386 29.9272Z" fill="black"/>
<path d="M118.198 33.0679C113.276 33.0679 110.198 29.7554 110.198 24.4429V24.4272C110.198 19.146 113.323 15.8335 118.151 15.8335C122.511 15.8335 125.229 18.5991 125.464 21.9116L125.479 22.0366H121.808L121.776 21.896C121.448 20.2866 120.261 18.9897 118.198 18.9897C115.745 18.9897 114.167 21.0679 114.167 24.4585V24.4741C114.167 27.9272 115.761 29.9272 118.214 29.9272C120.183 29.9272 121.433 28.7554 121.792 27.021L121.823 26.8804H125.495L125.479 26.9897C125.183 30.4429 122.386 33.0679 118.198 33.0679ZM132.714 33.021C129.401 33.021 127.167 30.9741 127.167 28.021V27.9897C127.167 25.0522 129.448 23.2866 133.464 23.0366L137.792 22.771V21.6304C137.792 19.9585 136.698 18.9429 134.729 18.9429C132.886 18.9429 131.761 19.8022 131.511 21.021L131.479 21.1616H127.87L127.886 20.9741C128.12 18.0366 130.667 15.8335 134.87 15.8335C139.011 15.8335 141.683 18.021 141.683 21.3491V32.7397H137.792V30.1929H137.698C136.745 31.9272 134.901 33.021 132.714 33.021ZM131.042 27.8647C131.042 29.2241 132.167 30.0522 133.87 30.0522C136.104 30.0522 137.792 28.5679 137.792 26.5991V25.3491L134.011 25.5835C132.089 25.7085 131.042 26.5366 131.042 27.8491V27.8647ZM144.823 32.7397V16.1772H148.714V19.0366H148.792C149.308 17.0366 150.683 15.8335 152.589 15.8335C153.073 15.8335 153.526 15.9116 153.823 15.9897V19.5054C153.495 19.3804 152.901 19.2866 152.245 19.2866C150.042 19.2866 148.714 20.6772 148.714 23.1304V32.7397H144.823ZM161.354 33.0679C157.167 33.0679 154.511 29.7866 154.511 24.4585V24.4429C154.511 19.0991 157.183 15.8335 161.339 15.8335C163.683 15.8335 165.573 17.0366 166.511 19.021H166.604V10.1929H170.495V32.7397H166.604V29.9272H166.511C165.573 31.8804 163.745 33.0679 161.354 33.0679ZM162.526 29.7866C164.933 29.7866 166.604 27.7085 166.604 24.4585V24.4429C166.604 21.2085 164.917 19.1147 162.526 19.1147C160.042 19.1147 158.479 21.146 158.479 24.4429V24.4585C158.479 27.7554 160.026 29.7866 162.526 29.7866ZM175.87 32.9897C174.604 32.9897 173.604 31.9897 173.604 30.7241C173.604 29.4741 174.604 28.4741 175.87 28.4741C177.136 28.4741 178.12 29.4741 178.12 30.7241C178.12 31.9897 177.136 32.9897 175.87 32.9897Z" fill="#8D8D8D"/>
<defs>
<clipPath id="clip0_1078_2312">
<rect x="12.5156" y="13.7538" width="17.6835" height="15.2275" rx="7.61373" fill="white"/>
</clipPath>
</defs>
</svg>
