<svg width="18" height="18" viewBox="0 0 18 18" fill="none" xmlns="http://www.w3.org/2000/svg">
<path d="M9 0.75C11.1425 0.75 12.6741 0.751732 13.8379 0.908203C14.8375 1.04261 15.4796 1.28148 15.957 1.67188L16.1514 1.84863C16.6478 2.34505 16.9382 3.01993 17.0918 4.16211C17.2483 5.32593 17.25 6.85748 17.25 9C17.25 11.1425 17.2483 12.6741 17.0918 13.8379C16.9574 14.8375 16.7185 15.4796 16.3281 15.957L16.1514 16.1514C15.6549 16.6478 14.9801 16.9382 13.8379 17.0918C12.6741 17.2483 11.1425 17.25 9 17.25C6.85749 17.25 5.32593 17.2483 4.16211 17.0918C3.16245 16.9574 2.52041 16.7185 2.04297 16.3281L1.84863 16.1514C1.35223 15.6549 1.06178 14.98 0.908203 13.8379C0.751731 12.6741 0.75 11.1425 0.75 9C0.75 6.85748 0.751732 5.32593 0.908203 4.16211C1.04262 3.16246 1.28148 2.52041 1.67188 2.04297L1.84863 1.84863C2.34505 1.35222 3.01994 1.06178 4.16211 0.908203C5.32593 0.751732 6.85749 0.75 9 0.75Z" stroke="#919191" stroke-width="1.5" stroke-linecap="round" stroke-linejoin="round"/>
<path d="M4.26318 13.7369L8.23605 9.76408M8.23605 9.76408L4.26318 4.26318H6.89477L9.76406 8.23597M8.23605 9.76408L11.1053 13.7369H13.7369L9.76406 8.23597M13.7369 4.26318L9.76406 8.23597" stroke="#919191" stroke-width="1.5" stroke-linecap="round" stroke-linejoin="round"/>
</svg>
