<svg width="18" height="19" viewBox="0 0 18 19" fill="none" xmlns="http://www.w3.org/2000/svg">
<path d="M7.9038 2.07935C8.43636 1.31811 9.56364 1.31811 10.0962 2.07935L10.6173 2.82415C10.9399 3.28532 11.5167 3.49525 12.0603 3.34936L12.9382 3.11374C13.8355 2.87292 14.699 3.59752 14.6176 4.52299L14.5381 5.42848C14.4888 5.98914 14.7957 6.52069 15.3059 6.75834L16.1298 7.14216C16.972 7.53444 17.1677 8.64459 16.5105 9.30125L15.8675 9.94374C15.4694 10.3416 15.3628 10.946 15.6009 11.456L15.9854 12.2797C16.3783 13.1215 15.8147 14.0977 14.8892 14.1783L13.9836 14.2572C13.4229 14.306 12.9527 14.7006 12.8073 15.2443L12.5724 16.1224C12.3323 17.0198 11.273 17.4054 10.5122 16.8722L9.7678 16.3505C9.30689 16.0275 8.69311 16.0275 8.2322 16.3505L7.48782 16.8722C6.72702 17.4054 5.66772 17.0198 5.42764 16.1224L5.19273 15.2443C5.04728 14.7006 4.5771 14.306 4.0164 14.2572L3.11084 14.1783C2.18531 14.0977 1.62167 13.1215 2.01464 12.2797L2.39913 11.456C2.6372 10.946 2.53061 10.3416 2.13248 9.94374L1.48947 9.30125C0.832272 8.64459 1.02802 7.53444 1.87017 7.14216L2.69415 6.75834C3.20434 6.52069 3.51123 5.98914 3.46195 5.42848L3.38235 4.52299C3.30101 3.59752 4.16455 2.87292 5.06183 3.11374L5.93975 3.34936C6.48333 3.49525 7.0601 3.28532 7.38273 2.82415L7.9038 2.07935Z" fill="#1F1F1F"/>
<g clip-path="url(#clip0_1078_2388)">
<rect x="5.30322" y="6.34039" width="7.49311" height="6.4524" rx="3.2262" fill="#1F1F1F"/>
<path d="M9.71532 3.63452C10.7347 3.63452 12.6945 3.86369 12.6945 6.45569C12.6945 9.05559 10.7347 9.27685 9.71532 9.27685H8.49045C7.47103 9.27685 5.51123 9.05559 5.51123 6.45569C5.51123 3.86369 7.47103 3.63452 8.49045 3.63452L9.71532 3.63452ZM10.1262 7.86232C10.9244 7.86232 11.122 7.17481 11.122 6.45569C11.122 5.74447 10.9244 5.05696 10.1262 5.05696H8.07952C7.28137 5.05696 7.08381 5.74447 7.08381 6.45569C7.08381 7.17481 7.28137 7.86232 8.07952 7.86232H10.1262Z" fill="#F7F7F7"/>
<path d="M9.73217 9.76953C10.7516 9.76953 12.7114 9.9987 12.7114 12.5907C12.7114 15.1906 10.7516 15.4119 9.73217 15.4119H8.50729C7.48788 15.4119 5.52808 15.1906 5.52808 12.5907C5.52808 9.9987 7.48788 9.76953 8.50729 9.76953H9.73217ZM10.1431 13.9973C10.9412 13.9973 11.1388 13.3098 11.1388 12.5907C11.1388 11.8795 10.9412 11.192 10.1431 11.192H8.09637C7.29822 11.192 7.10066 11.8795 7.10066 12.5907C7.10066 13.3098 7.29822 13.9973 8.09637 13.9973H10.1431Z" fill="#F7F7F7"/>
</g>
<defs>
<clipPath id="clip0_1078_2388">
<rect x="5.30322" y="6.34039" width="7.49311" height="6.4524" rx="3.2262" fill="white"/>
</clipPath>
</defs>
</svg>
