<svg width="39" height="33" viewBox="0 0 39 33" fill="none" xmlns="http://www.w3.org/2000/svg">
<g filter="url(#filter0_dd_1078_2347)">
<g clip-path="url(#clip0_1078_2347)">
<rect x="7" y="0.25" width="32" height="32" rx="16" fill="#151515"/>
<path fill-rule="evenodd" clip-rule="evenodd" d="M0.600098 21.5837H45.4001V23.717H0.600098V21.5837Z" fill="white"/>
<path fill-rule="evenodd" clip-rule="evenodd" d="M0.600098 23.7172H45.4001V32.2505H0.600098V23.7172Z" fill="#0A6A30"/>
<path fill-rule="evenodd" clip-rule="evenodd" d="M0.600098 10.917H45.4001V21.5837H0.600098V10.917Z" fill="#F93939"/>
<path fill-rule="evenodd" clip-rule="evenodd" d="M0.600098 8.78351H45.4001V10.9168H0.600098V8.78351Z" fill="white"/>
<path fill-rule="evenodd" clip-rule="evenodd" d="M27.0836 12.8672C27.2372 12.8672 28.1502 11.4378 28.1502 9.66716C28.1502 7.90076 27.2372 6.46716 27.0836 6.46716C26.9342 6.46716 26.0169 7.90076 26.0169 9.66716C26.0169 11.4378 26.9342 12.8672 27.0836 12.8672ZM20.8137 11.9306C20.707 12.0373 19.043 11.6746 17.7972 10.4224C16.5492 9.17223 16.1822 7.5125 16.291 7.40583C16.3977 7.29916 18.0574 7.66183 19.3076 8.9141C20.5577 10.1642 20.9225 11.824 20.8158 11.9328L20.8137 11.9306ZM24.8222 21.601C24.9289 21.5008 26.5929 21.8421 27.8409 23.009C29.0889 24.1824 29.4558 25.7333 29.3492 25.8336C29.2425 25.9338 27.5785 25.5925 26.3284 24.4256C25.0804 23.2522 24.7134 21.7013 24.8222 21.601ZM20.8137 21.601C20.707 21.5008 19.043 21.8421 17.7972 23.009C16.5492 24.1824 16.1822 25.7333 16.291 25.8336C16.3977 25.9338 18.0574 25.5925 19.3076 24.4256C20.5577 23.2522 20.9225 21.7013 20.8158 21.601H20.8137Z" fill="white"/>
<path fill-rule="evenodd" clip-rule="evenodd" d="M23.0001 25.8504C23.7617 25.8504 28.3334 21.5517 28.3334 16.2504C28.3334 10.9491 23.7617 6.65039 23.0001 6.65039C22.2385 6.65039 17.6667 10.9491 17.6667 16.2504C17.6667 21.5517 22.2385 25.8504 23.0001 25.8504Z" fill="#F93939"/>
<path fill-rule="evenodd" clip-rule="evenodd" d="M18.7334 19.4505C18.8827 19.4505 19.8001 18.0169 19.8001 16.2505C19.8001 14.4841 18.8827 13.0505 18.7334 13.0505C18.5841 13.0505 17.6667 14.4841 17.6667 16.2505C17.6667 18.0169 18.5841 19.4505 18.7334 19.4505ZM27.2667 19.4505C27.4161 19.4505 28.3334 18.0169 28.3334 16.2505C28.3334 14.4841 27.4161 13.0505 27.2667 13.0505C27.1174 13.0505 26.2001 14.4841 26.2001 16.2505C26.2001 18.0169 27.1174 19.4505 27.2667 19.4505Z" fill="#151515"/>
<path d="M24.0664 16.2505C24.0664 14.4832 23.5889 13.0505 22.9998 13.0505C22.4107 13.0505 21.9331 14.4832 21.9331 16.2505C21.9331 18.0178 22.4107 19.4505 22.9998 19.4505C23.5889 19.4505 24.0664 18.0178 24.0664 16.2505Z" fill="white"/>
</g>
<rect x="7.5" y="0.75" width="31" height="31" rx="15.5" stroke="#F7F7F7"/>
</g>
<defs>
<filter id="filter0_dd_1078_2347" x="0.142858" y="-2.03571" width="45.7143" height="45.7143" filterUnits="userSpaceOnUse" color-interpolation-filters="sRGB">
<feFlood flood-opacity="0" result="BackgroundImageFix"/>
<feColorMatrix in="SourceAlpha" type="matrix" values="0 0 0 0 0 0 0 0 0 0 0 0 0 0 0 0 0 0 127 0" result="hardAlpha"/>
<feOffset dy="4.57143"/>
<feGaussianBlur stdDeviation="3.42857"/>
<feComposite in2="hardAlpha" operator="out"/>
<feColorMatrix type="matrix" values="0 0 0 0 0.258824 0 0 0 0 0.278431 0 0 0 0 0.298039 0 0 0 0.08 0"/>
<feBlend mode="normal" in2="BackgroundImageFix" result="effect1_dropShadow_1078_2347"/>
<feColorMatrix in="SourceAlpha" type="matrix" values="0 0 0 0 0 0 0 0 0 0 0 0 0 0 0 0 0 0 127 0" result="hardAlpha"/>
<feOffset/>
<feGaussianBlur stdDeviation="0.285714"/>
<feComposite in2="hardAlpha" operator="out"/>
<feColorMatrix type="matrix" values="0 0 0 0 0.258824 0 0 0 0 0.278431 0 0 0 0 0.298039 0 0 0 0.32 0"/>
<feBlend mode="normal" in2="effect1_dropShadow_1078_2347" result="effect2_dropShadow_1078_2347"/>
<feBlend mode="normal" in="SourceGraphic" in2="effect2_dropShadow_1078_2347" result="shape"/>
</filter>
<clipPath id="clip0_1078_2347">
<rect x="7" y="0.25" width="32" height="32" rx="16" fill="white"/>
</clipPath>
</defs>
</svg>
