<svg width="1440" height="1024" viewBox="0 0 1440 1024" fill="none" xmlns="http://www.w3.org/2000/svg">
<g clip-path="url(#clip0_1075_2188)">
<path d="M552.539 1090V54.9956M625.361 1090V54.9956M696.654 1090V54.9956M772.022 1090V54.9956M849.936 1090V54.9956M926.322 1090V54.9956M1005 1090V54.9956M460.876 1090V54.9956M363.356 1090V54.9956M269.146 1090V54.9956M168.826 1090V54.9956M69.5238 1090V54.9956M-42 1090V54.9956" stroke="url(#paint0_linear_1075_2188)"/>
<path d="M-36 700.126L999 700.126M-35.9999 830.955L999 830.954M-35.9999 959.038L999 959.038M-35.9999 1094.44L999 1094.44M-35.9999 1234.42L999 1234.42M-35.9999 1371.65L999 1371.65M-35.9999 1513L999 1513M-36 535.447L999 535.447M-36 360.247L999 360.247M-36 190.994L999 190.994M-36 10.7617L999 10.7617M-36 -167.641L999 -167.641M-36 -368L999 -368" stroke="url(#paint1_linear_1075_2188)"/>
<path d="M906.461 1090V54.9956M833.639 1090V54.9956M762.346 1090V54.9956M686.978 1090V54.9956M609.064 1090V54.9956M532.678 1090V54.9956M454 1090V54.9956M998.124 1090V54.9956M1095.64 1090V54.9956M1189.85 1090V54.9956M1290.17 1090V54.9956M1389.48 1090V54.9956M1501 1090V54.9956" stroke="url(#paint2_linear_1075_2188)"/>
<path d="M1495 700.126L460 700.126M1495 830.955L460 830.954M1495 959.038L460 959.038M1495 1094.44L460 1094.44M1495 1234.42L460 1234.42M1495 1371.65L460 1371.65M1495 1513L460 1513M1495 535.447L460 535.447M1495 360.247L460 360.247M1495 190.994L460 190.994M1495 10.7617L460 10.7617M1495 -167.641L460 -167.641M1495 -368L460 -368" stroke="url(#paint3_linear_1075_2188)"/>
</g>
<defs>
<linearGradient id="paint0_linear_1075_2188" x1="268.809" y1="952.846" x2="641.94" y2="839.402" gradientUnits="userSpaceOnUse">
<stop stop-color="#E0E0E0"/>
<stop offset="1" stop-color="#F7F7F7"/>
</linearGradient>
<linearGradient id="paint1_linear_1075_2188" x1="610.619" y1="469.954" x2="123.783" y2="1000.84" gradientUnits="userSpaceOnUse">
<stop stop-color="#F7F7F7"/>
<stop offset="1" stop-color="#E0E0E0"/>
</linearGradient>
<linearGradient id="paint2_linear_1075_2188" x1="1190.19" y1="952.846" x2="817.06" y2="839.402" gradientUnits="userSpaceOnUse">
<stop stop-color="#E0E0E0"/>
<stop offset="1" stop-color="#F7F7F7"/>
</linearGradient>
<linearGradient id="paint3_linear_1075_2188" x1="848.381" y1="469.954" x2="1335.22" y2="1000.84" gradientUnits="userSpaceOnUse">
<stop stop-color="#F7F7F7"/>
<stop offset="1" stop-color="#E0E0E0"/>
</linearGradient>
<clipPath id="clip0_1075_2188">
<rect width="1440" height="1024" fill="white"/>
</clipPath>
</defs>
</svg>
